<svg width="32" height="32" viewBox="0 0 32 32" fill="none" xmlns="http://www.w3.org/2000/svg">
<g clip-path="url(#clip0_4_118)">
<path d="M16 10.6667C19.5307 10.6667 22.704 11.768 24.9 13.52C25.6513 13.2567 26.4719 13.2709 27.2136 13.5601C27.9553 13.8493 28.569 14.3943 28.9437 15.0967C29.3184 15.7991 29.4293 16.6123 29.2565 17.3894C29.0837 18.1665 28.6384 18.856 28.0013 19.3333C28.0013 24.12 22.628 28 16.0013 28C9.50134 28 4.20801 24.2667 4.00134 19.608L2.66801 19.3333C2.03093 18.856 1.5857 18.1665 1.41286 17.3894C1.24003 16.6123 1.35099 15.7991 1.72569 15.0967C2.10039 14.3943 2.71408 13.8493 3.45575 13.5601C4.19742 13.2709 5.0181 13.2567 5.76934 13.52C7.96401 11.7693 11.1373 10.6667 14.668 10.6667H16Z" stroke="white" stroke-width="2" stroke-linecap="round" stroke-linejoin="round"/>
<path d="M16 10.6667L17.3333 4L25.3333 5.33333" stroke="white" stroke-width="2" stroke-linecap="round" stroke-linejoin="round"/>
<path d="M25.3333 6.66667C26.0697 6.66667 26.6667 6.06971 26.6667 5.33333C26.6667 4.59695 26.0697 4 25.3333 4C24.597 4 24 4.59695 24 5.33333C24 6.06971 24.597 6.66667 25.3333 6.66667Z" stroke="white" stroke-width="2" stroke-linecap="round" stroke-linejoin="round"/>
<path d="M12 18C12.3682 18 12.6666 17.7015 12.6666 17.3333C12.6666 16.9651 12.3682 16.6667 12 16.6667C11.6318 16.6667 11.3333 16.9651 11.3333 17.3333C11.3333 17.7015 11.6318 18 12 18Z" fill="white" stroke="white" stroke-width="2" stroke-linecap="round" stroke-linejoin="round"/>
<path d="M20 18C20.3682 18 20.6666 17.7015 20.6666 17.3333C20.6666 16.9651 20.3682 16.6667 20 16.6667C19.6318 16.6667 19.3333 16.9651 19.3333 17.3333C19.3333 17.7015 19.6318 18 20 18Z" fill="white" stroke="white" stroke-width="2" stroke-linecap="round" stroke-linejoin="round"/>
<path d="M13.3333 22.6667C14.2226 23.1107 15.1106 23.3333 16 23.3333C16.8893 23.3333 17.7773 23.1107 18.6666 22.6667" stroke="white" stroke-width="2" stroke-linecap="round" stroke-linejoin="round"/>
</g>
<defs>
<clipPath id="clip0_4_118">
<rect width="32" height="32" fill="white"/>
</clipPath>
</defs>
</svg>
