<svg width="48" height="48" viewBox="0 0 48 48" fill="none" xmlns="http://www.w3.org/2000/svg">
<rect width="48" height="48" rx="4" fill="#2AA3EF"/>
<g clip-path="url(#clip0_4_105)">
<path d="M37.3333 13.3467C36 14 34.6933 14.2653 33.3333 14.6667C31.8387 12.98 29.6227 12.8867 27.4933 13.684C25.364 14.4813 23.9693 16.4307 24 18.6667V20C19.6733 20.1107 15.82 18.14 13.3333 14.6667C13.3333 14.6667 7.75732 24.5773 18.6667 29.3333C16.1707 30.996 13.6813 32.1173 10.6667 32C15.0773 34.404 19.884 35.2307 24.0453 34.0227C28.8187 32.636 32.7413 29.0587 34.2467 23.7C34.6957 22.0702 34.9187 20.3865 34.9093 18.696C34.9067 18.364 36.9227 15 37.3333 13.3453V13.3467Z" stroke="white" stroke-width="2" stroke-linecap="round" stroke-linejoin="round"/>
</g>
<defs>
<clipPath id="clip0_4_105">
<rect width="32" height="32" fill="white" transform="translate(8 8)"/>
</clipPath>
</defs>
</svg>
